<?xml version="1.0" standalone="no"?><!DOCTYPE svg PUBLIC "-//W3C//DTD SVG 1.1//EN" "http://www.w3.org/Graphics/SVG/1.1/DTD/svg11.dtd"><svg t="1609219824793" class="icon" viewBox="0 0 1024 1024" version="1.1" xmlns="http://www.w3.org/2000/svg" p-id="7095" width="32" height="32" xmlns:xlink="http://www.w3.org/1999/xlink"><defs><style type="text/css"></style></defs><path d="M524.022306 542.769794c0.61708-0.548492 1.224949-1.111311 1.816445-1.701758 16.320372-16.319687 16.320372-42.775222 0-59.09491L136.690793 92.842525c-16.320372-16.319687-42.777018-16.319687-59.09739 0-16.312185 16.319687-16.312185 42.767036 0 59.086723l359.606938 359.591845L81.287693 867.418802c-18.350697 18.358113-20.005453 46.460148-3.693267 62.779835 16.320372 16.319687 44.431773 14.665001 62.78247-3.693112l381.768587-381.752564C522.793263 544.105209 523.41546 543.442106 524.022306 542.769794zM943.666068 481.973126 554.51811 92.842525c-16.320372-16.319687-42.777018-16.319687-59.09739 0-16.312185 16.319687-16.312185 42.767036 0 59.086723l359.606938 359.591845L499.113988 867.418802c-18.350697 18.358113-20.005453 46.460148-3.693267 62.779835 16.320372 16.319687 44.431773 14.665001 62.78247-3.693112l381.768587-381.752564c0.648803-0.647753 1.271-1.311879 1.876822-1.983167 0.61708-0.548492 1.224949-1.111311 1.816445-1.701758C959.986441 524.748349 959.986441 498.292813 943.666068 481.973126z" p-id="7096" fill="#8a8a8a"></path></svg>